<svg xmlns="http://www.w3.org/2000/svg" xmlns:svg="http://www.w3.org/2000/svg" xmlns:xlink="http://www.w3.org/1999/xlink" id="svg3146" width="1920" height="1200" version="1.1"><defs id="defs3148"><linearGradient id="linearGradient3982"><stop style="stop-color:#847d70;stop-opacity:1" id="stop3984" offset="0"/><stop style="stop-color:#1c1d1d;stop-opacity:1" id="stop3986" offset="1"/></linearGradient><linearGradient id="linearGradient3988" x1="908" x2="902" y1="0" y2="1203.333" gradientTransform="matrix(0.83074811,0,0,0.91914223,321.50549,-72.424352)" gradientUnits="userSpaceOnUse" xlink:href="#linearGradient3982"/><filter id="filter7012" width="1.291" height="2.377" x="-.145" y="-.689" color-interpolation-filters="sRGB"><feGaussianBlur id="feGaussianBlur7014" stdDeviation="13.899"/></filter><filter id="filter4383"><feGaussianBlur id="feGaussianBlur4385" stdDeviation="5.543"/></filter><linearGradient id="linearGradient4453" x1="908" x2="902" y1="0" y2="1203.333" gradientTransform="matrix(0.83074811,0,0,0.91914223,321.50549,-72.424352)" gradientUnits="userSpaceOnUse" xlink:href="#linearGradient3982"/><linearGradient id="linearGradient4486" x1="908" x2="902" y1="0" y2="1203.333" gradientTransform="matrix(0.83074811,0,0,0.91914223,228.17216,-77.424352)" gradientUnits="userSpaceOnUse" xlink:href="#linearGradient3982"/><linearGradient id="linearGradient4521" x1="908" x2="902" y1="0" y2="1203.333" gradientTransform="matrix(0.83074811,0,0,0.91914223,228.17216,-77.424352)" gradientUnits="userSpaceOnUse" xlink:href="#linearGradient3982"/><linearGradient id="linearGradient3827" x1="908" x2="902" y1="0" y2="1203.333" gradientTransform="matrix(0.79271212,0,0,0.87705909,195.67657,-67.564624)" gradientUnits="userSpaceOnUse" xlink:href="#linearGradient3982"/></defs><metadata id="metadata3151"/><g id="layer1" transform="translate(0,120)"><rect style="fill:url(#linearGradient3827);fill-opacity:1;stroke:#000;stroke-width:0;stroke-miterlimit:4;stroke-dasharray:none" id="rect3212" width="1527.292" height="1064.165" x="193.034" y="-70.488"/><path style="fill:#010407;fill-opacity:.54255317;stroke:none;filter:url(#filter4383)" id="rect4254" d="m 225.01042,1034.6667 c 533.33333,0 1066.66668,0 1600.00008,0 -1e-4,-199.99288 -1.6667,-411.68427 -1.6667,-611.67712 -83.2995,88.55904 -163.2656,133.66635 -336.5651,13.32274 -109.5862,-76.09948 -229.5076,151.11149 -426.5651,-1.71825 -105.44123,-81.77586 -187.72251,161.86589 -408.23182,-0.047 -107.54804,-78.96907 -234.34006,176.04658 -426.56511,-0.047 -0.13542,200.05552 -0.27083,400.11104 -0.40625,600.16653 z" transform="matrix(0.95421477,0,0,0.95421477,-22.048677,6.3148366)"/><rect style="fill:none;stroke:none" id="rect4523" width="1511.667" height="1050" x="198.333" y="-65"/></g></svg>