<svg xmlns="http://www.w3.org/2000/svg" xmlns:svg="http://www.w3.org/2000/svg" xmlns:xlink="http://www.w3.org/1999/xlink" id="svg2" width="744.094" height="1052.362" version="1.1"><defs id="defs4"><linearGradient id="linearGradient3781"><stop style="stop-color:#000;stop-opacity:.09574468" id="stop3783" offset="0"/><stop style="stop-color:#000;stop-opacity:.71808511" id="stop3785" offset="1"/></linearGradient><filter id="filter7012" width="1.291" height="2.377" x="-.145" y="-.689" color-interpolation-filters="sRGB"><feGaussianBlur id="feGaussianBlur7014" stdDeviation="13.899"/></filter><linearGradient id="linearGradient3787" x1="201.644" x2="474.144" y1="266.774" y2="657.488" gradientUnits="userSpaceOnUse" xlink:href="#linearGradient3781"/></defs><metadata id="metadata7"/><g id="layer1"><rect style="fill:url(#linearGradient3787);fill-opacity:1;stroke:#000;stroke-width:0;stroke-miterlimit:4;stroke-dasharray:none" id="rect2996" width="273.215" height="392.439" x="200.93" y="264.84"/><g id="g6884-6" transform="matrix(0.65957814,0,0,0.65957814,130.71267,109.9574)" style="opacity:.80973451;filter:url(#filter7012)"><g id="g6778-8" transform="matrix(0.68474937,0,0,0.68474937,164.33762,122.46626)"><path style="fill:#fff6d5;fill-opacity:1;stroke:none" id="path6574-5-1-5" d="m 407.14284,729.14789 c 0,12.82089 -10.39339,23.21428 -23.21428,23.21428 -12.8209,0 -23.21429,-10.39339 -23.21429,-23.21428 0,-12.8209 10.39339,-23.21429 23.21429,-23.21429 12.82089,0 23.21428,10.39339 23.21428,23.21429 z" transform="matrix(0.5294789,0.09824174,-0.09824174,0.5294789,166.49963,-65.433363)"/><path style="fill:#ff1818;fill-opacity:1;stroke:none" id="path6574-5-1-1-7" d="m 407.14284,729.14789 c 0,12.82089 -10.39339,23.21428 -23.21428,23.21428 -12.8209,0 -23.21429,-10.39339 -23.21429,-23.21428 0,-12.8209 10.39339,-23.21429 23.21429,-23.21429 12.82089,0 23.21428,10.39339 23.21428,23.21429 z" transform="matrix(0.5294789,0.09824174,-0.09824174,0.5294789,143.84825,-84.913837)"/><path style="fill:gray;fill-opacity:1;stroke:none" id="path6574-5-1-7-6" d="m 407.14284,729.14789 c 0,12.82089 -10.39339,23.21428 -23.21428,23.21428 -12.8209,0 -23.21429,-10.39339 -23.21429,-23.21428 0,-12.8209 10.39339,-23.21429 23.21429,-23.21429 12.82089,0 23.21428,10.39339 23.21428,23.21429 z" transform="matrix(0.5294789,0.09824174,-0.09824174,0.5294789,154.29463,-111.17508)"/><path style="fill:#00aad4;fill-opacity:1;stroke:none" id="path6574-5-1-4-1" d="m 407.14284,729.14789 c 0,12.82089 -10.39339,23.21428 -23.21428,23.21428 -12.8209,0 -23.21429,-10.39339 -23.21429,-23.21428 0,-12.8209 10.39339,-23.21429 23.21429,-23.21429 12.82089,0 23.21428,10.39339 23.21428,23.21429 z" transform="matrix(0.5294789,0.09824174,-0.09824174,0.5294789,183.24633,-110.74954)"/><path style="fill:#55d400;fill-opacity:1;stroke:none" id="path6574-5-1-0-8" d="m 407.14284,729.14789 c 0,12.82089 -10.39339,23.21428 -23.21428,23.21428 -12.8209,0 -23.21429,-10.39339 -23.21429,-23.21428 0,-12.8209 10.39339,-23.21429 23.21429,-23.21429 12.82089,0 23.21428,10.39339 23.21428,23.21429 z" transform="matrix(0.5294789,0.09824174,-0.09824174,0.5294789,189.08019,-83.135488)"/><path style="fill:#ffd83c;fill-opacity:.9414896;stroke:none" id="path6574-9" d="m 407.14284,729.14789 c 0,12.82089 -10.39339,23.21428 -23.21428,23.21428 -12.8209,0 -23.21429,-10.39339 -23.21429,-23.21428 0,-12.8209 10.39339,-23.21429 23.21429,-23.21429 12.82089,0 23.21428,10.39339 23.21428,23.21429 z" transform="matrix(1.0748453,0.19943132,-0.19943132,1.0748453,31.82011,-526.56965)"/></g><text id="text4243-2" x="199.368" y="363.577" xml:space="preserve" style="font-size:40px;font-style:normal;font-variant:normal;font-weight:400;font-stretch:normal;text-align:start;line-height:120.00000477%;letter-spacing:0;word-spacing:0;writing-mode:lr-tb;text-anchor:start;fill:#f55;fill-opacity:1;stroke:none;font-family:Segoe UI;-inkscape-font-specification:Segoe UI"><tspan id="tspan4245-7" x="199.368" y="363.577">magic</tspan></text><text id="text4243-4-9" x="309.491" y="363.577" xml:space="preserve" style="font-size:40px;font-style:normal;font-variant:normal;font-weight:400;font-stretch:normal;text-align:start;line-height:125%;letter-spacing:0;word-spacing:0;writing-mode:lr-tb;text-anchor:start;fill:#cf0;fill-opacity:1;stroke:none;font-family:Segoe UI;-inkscape-font-specification:Segoe UI"><tspan id="tspan4245-2-5" x="309.491" y="363.577">gr</tspan></text><text id="text4243-4-3-4" x="393.689" y="363.577" xml:space="preserve" style="font-size:40px;font-style:normal;font-variant:normal;font-weight:400;font-stretch:normal;text-align:start;line-height:125%;letter-spacing:0;word-spacing:0;writing-mode:lr-tb;text-anchor:start;fill:#cf0;fill-opacity:1;stroke:none;font-family:Segoe UI;-inkscape-font-specification:Segoe UI"><tspan id="tspan4245-2-2-3" x="393.689" y="363.577">ve</tspan></text></g><g id="g6778" transform="matrix(0.45164573,0,0,0.45164573,239.5773,182.34741)"><path id="path6574-5-1" d="m 407.14284,729.14789 c 0,12.82089 -10.39339,23.21428 -23.21428,23.21428 -12.8209,0 -23.21429,-10.39339 -23.21429,-23.21428 0,-12.8209 10.39339,-23.21429 23.21429,-23.21429 12.82089,0 23.21428,10.39339 23.21428,23.21429 z" transform="matrix(0.5294789,0.09824174,-0.09824174,0.5294789,166.49963,-65.433363)" style="fill:#fff6d5;fill-opacity:1;stroke:none"/><path id="path6574-5-1-1" d="m 407.14284,729.14789 c 0,12.82089 -10.39339,23.21428 -23.21428,23.21428 -12.8209,0 -23.21429,-10.39339 -23.21429,-23.21428 0,-12.8209 10.39339,-23.21429 23.21429,-23.21429 12.82089,0 23.21428,10.39339 23.21428,23.21429 z" transform="matrix(0.5294789,0.09824174,-0.09824174,0.5294789,143.84825,-84.913837)" style="fill:#ff1818;fill-opacity:1;stroke:none"/><path id="path6574-5-1-7" d="m 407.14284,729.14789 c 0,12.82089 -10.39339,23.21428 -23.21428,23.21428 -12.8209,0 -23.21429,-10.39339 -23.21429,-23.21428 0,-12.8209 10.39339,-23.21429 23.21429,-23.21429 12.82089,0 23.21428,10.39339 23.21428,23.21429 z" transform="matrix(0.5294789,0.09824174,-0.09824174,0.5294789,154.29463,-111.17508)" style="fill:gray;fill-opacity:1;stroke:none"/><path id="path6574-5-1-4" d="m 407.14284,729.14789 c 0,12.82089 -10.39339,23.21428 -23.21428,23.21428 -12.8209,0 -23.21429,-10.39339 -23.21429,-23.21428 0,-12.8209 10.39339,-23.21429 23.21429,-23.21429 12.82089,0 23.21428,10.39339 23.21428,23.21429 z" transform="matrix(0.5294789,0.09824174,-0.09824174,0.5294789,183.24633,-110.74954)" style="fill:#00aad4;fill-opacity:1;stroke:none"/><path id="path6574-5-1-0" d="m 407.14284,729.14789 c 0,12.82089 -10.39339,23.21428 -23.21428,23.21428 -12.8209,0 -23.21429,-10.39339 -23.21429,-23.21428 0,-12.8209 10.39339,-23.21429 23.21429,-23.21429 12.82089,0 23.21428,10.39339 23.21428,23.21429 z" transform="matrix(0.5294789,0.09824174,-0.09824174,0.5294789,189.08019,-83.135488)" style="fill:#55d400;fill-opacity:1;stroke:none"/><path id="path6574" d="m 407.14284,729.14789 c 0,12.82089 -10.39339,23.21428 -23.21428,23.21428 -12.8209,0 -23.21429,-10.39339 -23.21429,-23.21428 0,-12.8209 10.39339,-23.21429 23.21429,-23.21429 12.82089,0 23.21428,10.39339 23.21428,23.21429 z" transform="matrix(1.0748453,0.19943132,-0.19943132,1.0748453,31.82011,-526.56965)" style="fill:#ffd83c;fill-opacity:.9414896;stroke:none"/></g><g id="g4061" transform="matrix(0.54630099,0,0,0.54630099,183.5719,147.61643)"><text id="text4243-4" x="277.769" y="355.905" xml:space="preserve" style="font-size:48.29412079px;font-style:normal;font-variant:normal;font-weight:300;font-stretch:normal;text-align:start;line-height:123.00000191%;letter-spacing:0;word-spacing:0;writing-mode:lr-tb;text-anchor:start;fill:#cf0;fill-opacity:1;stroke:#c2f101;stroke-width:1.207353;stroke-miterlimit:4;stroke-opacity:1;stroke-dasharray:none;font-family:Segoe UI Light;-inkscape-font-specification:'Segoe UI Light, Light'"><tspan style="stroke-width:1.207353" id="tspan4245-2" x="277.769" y="355.905">gr</tspan></text><text id="text4243-4-3" x="379.425" y="355.905" xml:space="preserve" style="font-size:48.29412079px;font-style:normal;font-variant:normal;font-weight:300;font-stretch:normal;text-align:start;line-height:123.00000191%;letter-spacing:0;word-spacing:0;writing-mode:lr-tb;text-anchor:start;fill:#cf0;fill-opacity:1;stroke:#c2f101;stroke-width:1.207353;stroke-miterlimit:4;stroke-opacity:1;stroke-dasharray:none;font-family:Segoe UI Light;-inkscape-font-specification:'Segoe UI Light, Light'"><tspan style="stroke-width:1.207353" id="tspan4245-2-2" x="379.425" y="355.905">ve</tspan></text><text id="text4243-4-1" x="154.679" y="355.905" xml:space="preserve" style="font-size:48.29412079px;font-style:normal;font-variant:normal;font-weight:300;font-stretch:normal;text-align:start;line-height:123.00000191%;letter-spacing:0;word-spacing:0;writing-mode:lr-tb;text-anchor:start;fill:#f55;fill-opacity:1;stroke:#f55;stroke-width:1.207353;stroke-miterlimit:4;stroke-opacity:1;stroke-dasharray:none;font-family:Segoe UI Light;-inkscape-font-specification:'Segoe UI Light, Light'"><tspan style="stroke-width:1.207353" id="tspan4245-2-7" x="154.679" y="355.905">magic</tspan></text></g></g></svg>