<svg xmlns="http://www.w3.org/2000/svg" xmlns:svg="http://www.w3.org/2000/svg" id="svg2" width="744.094" height="1052.362" version="1.1"><defs id="defs4"><filter id="filter3796" width="1.403" height="1.432" x="-.202" y="-.216"><feGaussianBlur id="feGaussianBlur3798" stdDeviation="26.634"/></filter></defs><metadata id="metadata7"/><g id="layer1"><rect style="fill:#000;stroke:#fff;stroke-width:6;stroke-miterlimit:4;stroke-dasharray:none" id="rect3800" width="174.756" height="169.706" x="279.812" y="585.167"/><path style="fill:none;stroke:#fff;stroke-width:33.4805603;stroke-linecap:butt;stroke-linejoin:miter;stroke-miterlimit:4;stroke-opacity:1;stroke-dasharray:none" id="path2985" d="m 225.71428,386.64789 c 6.0166,6.87613 -6.3005,11.5027 -11.42858,9.99999 -13.89676,-4.07225 -14.95981,-22.29088 -8.57141,-32.85714 11.42736,-18.90057 37.86572,-19.44145 54.28572,-7.14283 24.09701,18.04871 24.0722,53.65772 5.71425,75.71428 -24.46827,29.39793 -69.5276,28.76748 -97.14286,4.28567 -34.75098,-30.80786 -33.49633,-85.43477 -2.85709,-118.57143 37.10823,-40.13292 101.363,-38.24465 140,-1.4285 45.53237,43.38656 43.00521,117.30434 -8e-5,161.42856 -49.65131,50.94317 -133.25445,47.77394 -182.85713,-1.42866 -56.361723,-55.90711 -52.548362,-149.21071 2.85724,-204.2857 62.15671,-61.78582 165.17146,-57.32693 225.71427,4.28582 67.214,68.40184 62.1086,181.13559 -5.7144,247.14285" transform="matrix(0.17920847,0,0,0.17920847,321.35174,593.84893)"/><path style="fill:none;stroke:#fff;stroke-width:33.4805603;stroke-linecap:butt;stroke-linejoin:miter;stroke-miterlimit:4;stroke-opacity:1;stroke-dasharray:none;filter:url(#filter3796)" id="path2985-1" d="m 225.71428,386.64789 c 6.0166,6.87613 -6.3005,11.5027 -11.42858,9.99999 -13.89676,-4.07225 -14.95981,-22.29088 -8.57141,-32.85714 11.42736,-18.90057 37.86572,-19.44145 54.28572,-7.14283 24.09701,18.04871 24.0722,53.65772 5.71425,75.71428 -24.46827,29.39793 -69.5276,28.76748 -97.14286,4.28567 -34.75098,-30.80786 -33.49633,-85.43477 -2.85709,-118.57143 37.10823,-40.13292 101.363,-38.24465 140,-1.4285 45.53237,43.38656 43.00521,117.30434 -8e-5,161.42856 -49.65131,50.94317 -133.25445,47.77394 -182.85713,-1.42866 -56.361723,-55.90711 -52.548362,-149.21071 2.85724,-204.2857 62.15671,-61.78582 165.17146,-57.32693 225.71427,4.28582 67.214,68.40184 62.1086,181.13559 -5.7144,247.14285" transform="matrix(0.17920847,0,0,0.17920847,320.49908,595.0642)"/></g></svg>